Pagli Toke Rakhbo Boro Adore [720p] - Idiot (2012)



Info :

Song Name: Pagli Toke Rakhbo Boro Adore
Movie Name: Idiot (2012)
Format: mkv
File size: 178 MB
Duration: 00:03:51.51
Audio language: Bengali

Video info:
===========
Duration: 00:03:51.51, start: 0.000000, bitrate: 448 kb/s
Stream #0.0(eng): Video: h264, yuv420p, 1280x544 [PAR 1:1 DAR 40:17], 24 fps, 24 tbr, 1k tbn, 48 tbc
Stream #0.1: Audio: ac3, 44100 Hz, stereo, s16, 448 kb/s

Enjoy ...

Torrent Create & Uploaded by Tuklu.
